<svg fill="none" height="64" viewBox="0 0 64 64" width="64" xmlns="http://www.w3.org/2000/svg"><path d="m9.21528 41.8298c-.57959-1.0992-1.94051-1.5204-3.03971-.9408s-1.52042 1.9405-.94084 3.0397l1.99028-1.0494zm40.02332-39.70334c-.6067-1.08446-1.9777-1.471764-3.0621-.86506l-17.6724 9.8868c-1.0845.6067-1.4718 1.9777-.8651 3.0622.6067 1.0844 1.9777 1.4717 3.0622.865l15.7087-8.78827 8.7883 15.70877c.6067 1.0845 1.9777 1.4718 3.0622.8651 1.0844-.6067 1.4717-1.9777.865-3.0622zm-42.01359 40.75284-1.99028 1.0494c3.10144 5.8819 6.29117 11.937 8.43257 15.2156l1.8838-1.2304 1.8838-1.2304c-1.9958-3.0557-5.0636-8.8681-8.21962-14.8537zm8.32609 15.0346-1.8838 1.2304c1.074 1.6443 1.9852 2.747 2.8693 3.4291.4684.3614.9614.6306 1.4952.7891.5403.1604 1.0038.1715 1.3333.1587l-.0874-2.2483-.0874-2.2483c-.0428.0016.0275-.0041.1224.0241.0885.0263.0842.0478-.0274-.0383-.2759-.2128-.8558-.8041-1.8504-2.3269zm3.7266 3.359.0874 2.2483c1.512-.0588 2.5627-.7412 3.5497-1.7176l-1.5825-1.5995-1.5824-1.5995c-.3037.3005-.4473.3876-.4903.41-.0144.0075-.014.0059-.0074.0042.0049-.0012-.0107.0038-.0619.0058zm2.0546-1.0688 1.5825 1.5995c1.0344-1.0234 2.1403-2.5353 5.5258-8.737l-1.9749-1.0781-1.9749-1.0781c-3.4342 6.2908-4.2502 7.2087-4.7409 7.6942zm5.1334-8.2156 1.9749 1.0781c3.4237-6.2719 9.2896-17.58 13.2496-26.7102l-2.0642-.8953-2.0642-.8953c-3.8821 8.9507-9.6753 20.124-13.071 26.3446zm13.1603-26.5274 2.0642.8953c3.9843-9.1859 5.8535-15.8064 7.7501-22.51971l-2.1653-.61169-2.1653-.61169c-1.8869 6.67943-3.6899 13.05769-7.5479 21.95249z" fill="#4f46e5"/></svg>